<svg width="609" height="495" viewBox="0 0 609 495" fill="none" xmlns="http://www.w3.org/2000/svg">
<path fill-rule="evenodd" clip-rule="evenodd" d="M584.052 275.388C584.052 277.731 583.626 279.974 582.846 282.044C582.198 283.766 582.642 285.782 584.048 286.969C590.41 292.342 594.45 300.378 594.45 309.357C594.45 312.534 593.945 315.593 593.009 318.458C592.523 319.946 592.932 321.602 594.095 322.649C602.826 330.516 608.315 341.912 608.315 354.59C608.315 378.328 589.072 397.571 565.335 397.571C541.597 397.571 522.354 378.328 522.354 354.59C522.354 342.031 527.741 330.73 536.331 322.871C537.485 321.815 537.881 320.155 537.384 318.671C536.403 315.745 535.872 312.613 535.872 309.357C535.872 300.378 539.913 292.342 546.275 286.969C547.681 285.782 548.125 283.766 547.476 282.044C546.697 279.974 546.271 277.731 546.271 275.388C546.271 264.955 554.728 256.498 565.161 256.498C575.594 256.498 584.052 264.955 584.052 275.388Z" fill="#E1EFFE"/>
<path fill-rule="evenodd" clip-rule="evenodd" d="M564.988 274.215C565.54 274.215 565.988 274.663 565.988 275.215L565.988 441.245C565.988 441.797 565.54 442.245 564.988 442.245C564.436 442.245 563.988 441.797 563.988 441.245L563.988 275.215C563.988 274.663 564.436 274.215 564.988 274.215Z" fill="#ABC8FF"/>
<path fill-rule="evenodd" clip-rule="evenodd" d="M584.633 349.271C585.083 349.592 585.187 350.217 584.866 350.666L565.802 377.356C565.481 377.805 564.856 377.909 564.407 377.588C563.957 377.267 563.853 376.643 564.174 376.193L583.238 349.504C583.559 349.054 584.184 348.95 584.633 349.271Z" fill="#ABC8FF"/>
<path fill-rule="evenodd" clip-rule="evenodd" d="M545.343 308.023C544.893 308.344 544.789 308.969 545.11 309.418L564.174 336.108C564.495 336.557 565.12 336.661 565.569 336.34C566.019 336.019 566.123 335.395 565.802 334.945L546.738 308.256C546.417 307.806 545.792 307.702 545.343 308.023Z" fill="#ABC8FF"/>
<path d="M538.043 417.336C537.993 416.198 538.902 415.249 540.041 415.249H590.281C591.42 415.249 592.329 416.198 592.279 417.336L588.989 492.365C588.942 493.435 588.061 494.277 586.99 494.277H543.332C542.262 494.277 541.381 493.435 541.334 492.365L538.043 417.336Z" fill="#E1EFFE"/>
<path d="M538.043 417.336C537.993 416.198 538.902 415.249 540.041 415.249H590.281C591.42 415.249 592.329 416.198 592.279 417.336L588.989 492.365C588.942 493.435 588.061 494.277 586.99 494.277H543.332C542.262 494.277 541.381 493.435 541.334 492.365L538.043 417.336Z" fill="url(#paint0_linear_1_7760)"/>
<path fill-rule="evenodd" clip-rule="evenodd" d="M24.2633 275.388C24.2633 277.731 24.6897 279.974 25.4691 282.044C26.1175 283.766 25.6733 285.782 24.2676 286.969C17.9054 292.342 13.8647 300.378 13.8647 309.357C13.8647 312.534 14.3707 315.593 15.3064 318.458C15.7921 319.946 15.3829 321.602 14.2206 322.649C5.48922 330.516 0 341.912 0 354.59C0 378.328 19.2431 397.571 42.9807 397.571C66.7182 397.571 85.9613 378.328 85.9613 354.59C85.9613 342.031 80.5742 330.73 71.9847 322.871C70.8303 321.815 70.4338 320.155 70.931 318.671C71.9118 315.745 72.4432 312.613 72.4432 309.357C72.4432 300.378 68.4025 292.342 62.0404 286.969C60.6346 285.782 60.1905 283.766 60.8388 282.044C61.6182 279.974 62.0447 277.731 62.0447 275.388C62.0447 264.955 53.587 256.498 43.154 256.498C32.7209 256.498 24.2633 264.955 24.2633 275.388Z" fill="#E1EFFE"/>
<path fill-rule="evenodd" clip-rule="evenodd" d="M43.3273 274.215C42.775 274.215 42.3273 274.663 42.3273 275.215L42.3273 441.245C42.3273 441.797 42.775 442.245 43.3273 442.245C43.8795 442.245 44.3273 441.797 44.3273 441.245L44.3273 275.215C44.3273 274.663 43.8796 274.215 43.3273 274.215Z" fill="#ABC8FF"/>
<path fill-rule="evenodd" clip-rule="evenodd" d="M23.682 349.271C23.2326 349.592 23.1285 350.217 23.4495 350.666L42.5135 377.356C42.8345 377.805 43.4591 377.909 43.9085 377.588C44.3579 377.267 44.462 376.643 44.141 376.193L25.077 349.504C24.756 349.054 24.1314 348.95 23.682 349.271Z" fill="#ABC8FF"/>
<path fill-rule="evenodd" clip-rule="evenodd" d="M62.9724 308.023C63.4218 308.344 63.5259 308.969 63.2049 309.418L44.1409 336.108C43.8199 336.557 43.1954 336.661 42.746 336.34C42.2965 336.019 42.1924 335.395 42.5135 334.945L61.5775 308.256C61.8985 307.806 62.523 307.702 62.9724 308.023Z" fill="#ABC8FF"/>
<path d="M70.3634 415.249H15.9444L19.4105 494.277H66.8972L70.3634 415.249Z" fill="#E1EFFE"/>
<path d="M70.3634 415.249H15.9444L19.4105 494.277H66.8972L70.3634 415.249Z" fill="url(#paint1_linear_1_7760)"/>
<path d="M147.66 6.00001C147.66 2.68631 150.346 0 153.66 0H466.787C470.101 0 472.787 2.68629 472.787 6V310.809C472.787 314.123 470.101 316.809 466.787 316.809H153.66C150.346 316.809 147.66 314.123 147.66 310.809V6.00001Z" fill="#E1EFFE"/>
<path d="M220.103 153.086C220.103 151.429 221.446 150.086 223.103 150.086H397.691C399.348 150.086 400.691 151.429 400.691 153.086V175.509C400.691 177.165 399.348 178.509 397.691 178.509H223.103C221.446 178.509 220.103 177.165 220.103 175.509V153.086Z" fill="white"/>
<path fill-rule="evenodd" clip-rule="evenodd" d="M269.323 164.297C269.323 163.531 269.943 162.911 270.709 162.911H350.085C350.85 162.911 351.471 163.531 351.471 164.297C351.471 165.063 350.85 165.684 350.085 165.684H270.709C269.943 165.684 269.323 165.063 269.323 164.297Z" fill="#E1EFFE"/>
<path d="M220.103 197.799C220.103 196.142 221.446 194.799 223.103 194.799H397.691C399.348 194.799 400.691 196.142 400.691 197.799V220.222C400.691 221.879 399.348 223.222 397.691 223.222H223.103C221.446 223.222 220.103 221.879 220.103 220.222V197.799Z" fill="white"/>
<path d="M254.765 209.009C254.765 210.732 253.368 212.129 251.645 212.129C249.922 212.129 248.526 210.732 248.526 209.009C248.526 207.286 249.922 205.89 251.645 205.89C253.368 205.89 254.765 207.286 254.765 209.009Z" fill="#E1EFFE"/>
<path d="M266.55 209.009C266.55 210.732 265.153 212.129 263.43 212.129C261.707 212.129 260.311 210.732 260.311 209.009C260.311 207.286 261.707 205.89 263.43 205.89C265.153 205.89 266.55 207.286 266.55 209.009Z" fill="#E1EFFE"/>
<path d="M278.335 209.009C278.335 210.732 276.938 212.129 275.215 212.129C273.493 212.129 272.096 210.732 272.096 209.009C272.096 207.286 273.493 205.89 275.215 205.89C276.938 205.89 278.335 207.286 278.335 209.009Z" fill="#E1EFFE"/>
<path d="M290.12 209.009C290.12 210.732 288.723 212.129 287 212.129C285.278 212.129 283.881 210.732 283.881 209.009C283.881 207.286 285.278 205.89 287 205.89C288.723 205.89 290.12 207.286 290.12 209.009Z" fill="#E1EFFE"/>
<path d="M301.905 209.009C301.905 210.732 300.508 212.129 298.785 212.129C297.062 212.129 295.666 210.732 295.666 209.009C295.666 207.286 297.062 205.89 298.785 205.89C300.508 205.89 301.905 207.286 301.905 209.009Z" fill="#E1EFFE"/>
<path d="M313.69 209.009C313.69 210.732 312.293 212.129 310.57 212.129C308.847 212.129 307.451 210.732 307.451 209.009C307.451 207.286 308.847 205.89 310.57 205.89C312.293 205.89 313.69 207.286 313.69 209.009Z" fill="#E1EFFE"/>
<path d="M325.475 209.009C325.475 210.732 324.078 212.129 322.356 212.129C320.633 212.129 319.236 210.732 319.236 209.009C319.236 207.286 320.633 205.89 322.356 205.89C324.078 205.89 325.475 207.286 325.475 209.009Z" fill="#E1EFFE"/>
<path d="M337.26 209.009C337.26 210.732 335.863 212.129 334.14 212.129C332.418 212.129 331.021 210.732 331.021 209.009C331.021 207.286 332.418 205.89 334.14 205.89C335.863 205.89 337.26 207.286 337.26 209.009Z" fill="#E1EFFE"/>
<path d="M349.045 209.009C349.045 210.732 347.648 212.129 345.925 212.129C344.202 212.129 342.806 210.732 342.806 209.009C342.806 207.286 344.202 205.89 345.925 205.89C347.648 205.89 349.045 207.286 349.045 209.009Z" fill="#E1EFFE"/>
<path d="M360.83 209.009C360.83 210.732 359.433 212.129 357.711 212.129C355.988 212.129 354.591 210.732 354.591 209.009C354.591 207.286 355.988 205.89 357.711 205.89C359.433 205.89 360.83 207.286 360.83 209.009Z" fill="#E1EFFE"/>
<path d="M372.615 209.009C372.615 210.732 371.218 212.129 369.496 212.129C367.773 212.129 366.376 210.732 366.376 209.009C366.376 207.286 367.773 205.89 369.496 205.89C371.218 205.89 372.615 207.286 372.615 209.009Z" fill="#E1EFFE"/>
<path d="M355.284 78.162C355.284 102.952 335.188 123.049 310.397 123.049C285.607 123.049 265.51 102.952 265.51 78.162C265.51 53.3715 285.607 33.2749 310.397 33.2749C335.188 33.2749 355.284 53.3715 355.284 78.162Z" fill="white"/>
<path d="M310.137 76.3859C313.906 76.3859 316.961 73.3307 316.961 69.5618C316.961 65.793 313.906 62.7378 310.137 62.7378C306.368 62.7378 303.313 65.793 303.313 69.5618C303.313 73.3307 306.368 76.3859 310.137 76.3859Z" fill="#E1EFFE"/>
<path d="M306.238 82.2351H314.037C316.105 82.2351 318.089 83.0567 319.551 84.5193C321.014 85.9819 321.836 87.9656 321.836 90.034V93.9334H298.439V90.034C298.439 87.9656 299.261 85.9819 300.723 84.5193C302.186 83.0567 304.169 82.2351 306.238 82.2351Z" fill="#E1EFFE"/>
<path d="M254.419 435.699L250.259 478.506H234.315V432.579L254.419 435.699Z" fill="#FDBA8C"/>
<path d="M254.419 435.699L250.259 478.506H234.315V432.579L254.419 435.699Z" fill="url(#paint2_linear_1_7760)"/>
<path d="M253.563 445.057H233.935C232.871 445.057 231.993 444.238 231.945 443.175C231.112 424.639 229.919 366.35 232.036 338.992L269.471 339.859C268.927 358.206 260.124 415.466 255.532 443.404C255.373 444.37 254.541 445.057 253.563 445.057Z" fill="#1C64F2"/>
<path d="M253.563 445.057H233.935C232.871 445.057 231.993 444.238 231.945 443.175C231.112 424.639 229.919 366.35 232.036 338.992L269.471 339.859C268.927 358.206 260.124 415.466 255.532 443.404C255.373 444.37 254.541 445.057 253.563 445.057Z" fill="url(#paint3_linear_1_7760)"/>
<path fill-rule="evenodd" clip-rule="evenodd" d="M249.673 445.057H255.259C256.895 435.156 259.144 421.043 261.371 406.185C260.887 406.176 260.396 406.479 260.318 407.094L259.055 417.06C258.931 418.037 257.645 418.31 257.134 417.468L251.927 408.878C251.293 407.833 249.689 408.547 250.042 409.717L252.941 419.335C253.225 420.278 252.161 421.051 251.352 420.489L243.101 414.76C242.097 414.063 240.923 415.368 241.721 416.293L248.281 423.9C248.924 424.646 248.267 425.785 247.299 425.601L237.431 423.723C236.231 423.495 235.688 425.164 236.793 425.685L245.881 429.966C246.772 430.386 246.634 431.694 245.675 431.919L235.897 434.217C234.707 434.497 234.891 436.243 236.112 436.269L246.155 436.484C247.14 436.505 247.546 437.756 246.762 438.352L238.763 444.429C238.53 444.606 238.403 444.828 238.361 445.057H242.553L249.057 442.327C249.965 441.946 250.845 442.923 250.371 443.786L249.673 445.057Z" fill="#A4CAFE" fill-opacity="0.2"/>
<path fill-rule="evenodd" clip-rule="evenodd" d="M231.175 357.009L232.525 359.236C233.035 360.078 234.322 359.805 234.445 358.828L235.709 348.862C235.863 347.65 237.618 347.65 237.772 348.862L239.036 358.828C239.159 359.805 240.446 360.078 240.956 359.236L246.164 350.646C246.797 349.601 248.401 350.315 248.049 351.485L245.15 361.103C244.865 362.046 245.929 362.819 246.738 362.257L254.99 356.528C255.993 355.831 257.168 357.136 256.37 358.061L249.81 365.668C249.167 366.414 249.824 367.553 250.792 367.369L260.66 365.491C261.86 365.263 262.403 366.933 261.297 367.453L252.21 371.734C251.319 372.154 251.457 373.462 252.415 373.687L262.194 375.986C263.383 376.265 263.2 378.011 261.978 378.037L251.935 378.252C250.951 378.273 250.544 379.524 251.329 380.12L259.327 386.197C260.3 386.936 259.422 388.457 258.296 387.984L249.034 384.095C248.126 383.714 247.246 384.691 247.72 385.554L252.555 394.359C253.143 395.43 251.723 396.462 250.886 395.572L244.006 388.252C243.332 387.535 242.13 388.07 242.212 389.051L243.048 399.061C243.15 400.279 241.432 400.644 241.03 399.49L237.722 390.005C237.398 389.076 236.083 389.076 235.759 390.005L232.451 399.49C232.201 400.206 231.445 400.337 230.932 400.043C230.911 397.95 230.893 395.836 230.88 393.711L231.269 389.051C231.302 388.652 231.123 388.327 230.854 388.129C230.824 377.383 230.908 366.581 231.175 357.009Z" fill="#A4CAFE" fill-opacity="0.2"/>
<path d="M197.919 490.118H251.992V492.278C251.992 493.382 251.096 494.278 249.992 494.278H199.919C198.815 494.278 197.919 493.382 197.919 492.278V490.118Z" fill="#1C64F2"/>
<path d="M198.004 489.919L197.919 490.118H251.906L251.68 477.776C251.663 476.832 250.715 476.163 249.776 476.255C244.706 476.75 237.602 473.548 236.087 471.167C235.432 470.136 234.608 469.5 233.83 469.122C232.553 468.501 231.138 469.115 229.985 469.943C223.04 474.931 213.356 479.297 206.178 482.117C202.532 483.55 199.537 486.313 198.004 489.919Z" fill="#1F2A37"/>
<path fill-rule="evenodd" clip-rule="evenodd" d="M214.502 478.678L214.912 479.59C215.69 481.318 216.456 483.038 217.026 484.615C217.59 486.174 218 487.693 218 489V490H216V489C216 488.054 215.691 486.806 215.145 485.295C214.605 483.801 213.871 482.148 213.088 480.41L212.678 479.498L214.502 478.678Z" fill="#374151"/>
<path d="M202.946 435.699L176.603 478.506H158.578L180.069 432.58L202.946 435.699Z" fill="#FDBA8C"/>
<path d="M202.946 435.699L176.603 478.506H158.578L180.069 432.58L202.946 435.699Z" fill="url(#paint4_linear_1_7760)"/>
<path d="M379.2 384.052C426.895 395.283 450.141 356.381 455.803 335.526C433.793 320.101 298.092 305.37 263.43 301.731C236.057 298.856 192.021 387.168 176.667 434.395C176.332 435.426 176.9 436.5 177.926 436.854L200.27 444.553C201.131 444.85 202.084 444.528 202.587 443.769L266.896 346.965C287.346 354.013 331.506 372.822 379.2 384.052Z" fill="#1C64F2"/>
<path fill-rule="evenodd" clip-rule="evenodd" d="M256.545 362.549L249.101 367.717C248.292 368.279 247.228 367.506 247.513 366.563L251.485 353.383C251.838 352.213 250.234 351.499 249.601 352.544L242.464 364.316C241.954 365.158 240.667 364.884 240.544 363.907L238.812 350.251C238.658 349.039 236.903 349.039 236.749 350.251L235.018 363.907C234.894 364.884 233.607 365.158 233.097 364.316L225.96 352.544C225.327 351.499 223.723 352.213 224.076 353.383L228.048 366.563C228.333 367.506 227.269 368.279 226.46 367.717L215.153 359.866C214.149 359.169 212.974 360.474 213.772 361.399L222.762 371.824C223.405 372.57 222.748 373.709 221.78 373.525L208.257 370.951C207.057 370.723 206.514 372.393 207.62 372.914L220.073 378.78C220.964 379.2 220.826 380.508 219.867 380.733L206.467 383.883C205.277 384.162 205.461 385.908 206.683 385.935L220.445 386.229C221.43 386.25 221.836 387.501 221.052 388.097L210.091 396.424C209.118 397.163 209.996 398.684 211.122 398.211L223.815 392.882C224.723 392.501 225.603 393.478 225.129 394.342L218.503 406.408C217.914 407.478 219.335 408.511 220.172 407.62L229.599 397.59C230.274 396.872 231.475 397.407 231.393 398.388L231.2 400.701L256.545 362.549Z" fill="#A4CAFE" fill-opacity="0.4"/>
<path fill-rule="evenodd" clip-rule="evenodd" d="M300.737 305.873L287.351 306.16C286.367 306.181 285.96 307.431 286.745 308.027L297.706 316.355C298.679 317.094 297.801 318.615 296.674 318.142L283.982 312.813C283.074 312.432 282.194 313.409 282.668 314.272L289.294 326.338C289.882 327.409 288.462 328.441 287.625 327.551L278.197 317.52C277.523 316.803 276.321 317.338 276.403 318.319L277.549 332.037C277.65 333.255 275.933 333.62 275.531 332.466L270.998 319.468C270.674 318.538 269.358 318.538 269.034 319.468L264.501 332.466C264.099 333.62 262.381 333.255 262.483 332.037L263.629 318.319C263.711 317.338 262.509 316.803 261.835 317.52L252.407 327.551C251.57 328.441 250.15 327.409 250.738 326.338L257.364 314.272C257.838 313.409 256.958 312.432 256.05 312.813L243.358 318.142C242.231 318.615 241.353 317.094 242.326 316.355L253.287 308.027C254.071 307.431 253.665 306.181 252.68 306.16L250.2 306.107C254.881 302.908 259.342 301.303 263.43 301.732C271.397 302.569 284.702 303.991 300.737 305.873Z" fill="#A4CAFE" fill-opacity="0.4"/>
<path fill-rule="evenodd" clip-rule="evenodd" d="M373.153 382.588C373.433 382.17 373.434 381.564 372.922 381.175L361.961 372.847C361.177 372.251 361.583 371.001 362.568 370.98L376.33 370.685C377.552 370.659 377.735 368.913 376.546 368.633L363.145 365.484C362.187 365.258 362.049 363.951 362.94 363.531L375.393 357.664C376.498 357.143 375.956 355.473 374.756 355.702L361.232 358.275C360.265 358.459 359.607 357.32 360.251 356.575L369.241 346.15C370.039 345.225 368.864 343.92 367.86 344.617L356.553 352.468C355.744 353.03 354.68 352.257 354.964 351.314L358.937 338.134C359.29 336.964 357.686 336.25 357.052 337.295L349.916 349.066C349.405 349.908 348.119 349.635 347.995 348.658L346.264 335.001C346.11 333.789 344.354 333.789 344.201 335.001L342.469 348.658C342.345 349.635 341.059 349.908 340.548 349.066L333.412 337.295C332.779 336.25 331.175 336.964 331.527 338.134L335.5 351.314C335.784 352.257 334.72 353.03 333.911 352.468L322.604 344.617C321.601 343.92 320.426 345.225 321.224 346.15L330.214 356.575C330.857 357.32 330.199 358.459 329.232 358.275L315.709 355.702C314.509 355.473 313.966 357.143 315.071 357.664L327.524 363.531C328.415 363.951 328.278 365.258 327.319 365.484L321.257 366.908C332.626 370.845 344.937 374.839 357.758 378.475C357.831 377.84 358.507 377.343 359.198 377.633L367.625 381.171C369.46 381.653 371.303 382.125 373.153 382.588Z" fill="#A4CAFE" fill-opacity="0.4"/>
<path fill-rule="evenodd" clip-rule="evenodd" d="M435.843 327.791C435.91 327.916 436.007 328.033 436.137 328.132L447.098 336.459C448.071 337.198 447.193 338.719 446.067 338.246L433.374 332.917C432.466 332.536 431.586 333.513 432.06 334.376L438.686 346.442C439.275 347.513 437.854 348.545 437.017 347.655L427.59 337.625C426.915 336.907 425.714 337.442 425.796 338.423L426.941 352.141C427.043 353.359 425.326 353.724 424.923 352.57L420.39 339.572C420.066 338.642 418.751 338.642 418.427 339.572L413.894 352.57C413.491 353.724 411.774 353.359 411.876 352.141L413.021 338.423C413.103 337.442 411.902 336.907 411.227 337.625L401.8 347.655C400.963 348.545 399.542 347.513 400.13 346.442L406.757 334.376C407.231 333.513 406.351 332.536 405.443 332.917L392.75 338.246C391.624 338.719 390.746 337.198 391.719 336.459L402.68 328.132C403.464 327.536 403.058 326.285 402.073 326.264L388.31 325.969C387.089 325.943 386.905 324.197 388.095 323.918L401.495 320.768C401.752 320.708 401.95 320.57 402.085 320.392C414.89 322.751 426.505 325.234 435.843 327.791Z" fill="#A4CAFE" fill-opacity="0.4"/>
<path fill-rule="evenodd" clip-rule="evenodd" d="M188.099 440.361L187.001 438.362C186.527 437.499 187.407 436.522 188.315 436.903L201.008 442.232C202.134 442.705 203.012 441.184 202.039 440.445L191.078 432.117C190.294 431.522 190.7 430.271 191.685 430.25L205.447 429.955C206.669 429.929 206.852 428.183 205.663 427.903L192.262 424.754C191.304 424.529 191.166 423.221 192.057 422.801L204.51 416.934C205.615 416.414 205.073 414.744 203.873 414.972L190.35 417.545C189.382 417.73 188.725 416.591 189.368 415.845L198.358 405.42C199.156 404.495 197.981 403.19 196.977 403.887L185.67 411.738C185.427 411.907 185.162 411.955 184.917 411.915C181.37 420.727 178.368 428.998 176.082 436.22L188.099 440.361Z" fill="#A4CAFE" fill-opacity="0.4"/>
<path d="M126.169 490.118H179.202V492.278C179.202 493.382 178.306 494.278 177.202 494.278H128.169C127.065 494.278 126.169 493.382 126.169 492.278V490.118Z" fill="#1C64F2"/>
<path d="M126.254 489.919L126.169 490.118H179.116L179.782 477.928C179.836 476.942 178.852 476.191 177.867 476.242C173.085 476.49 167.217 472.82 165.724 470.473C165.069 469.443 164.245 468.806 163.467 468.428C162.19 467.808 160.775 468.422 159.62 469.248C152.502 474.337 141.959 479.113 134.422 482.102C130.78 483.546 127.787 486.313 126.254 489.919Z" fill="#1F2A37"/>
<path fill-rule="evenodd" clip-rule="evenodd" d="M143.002 478.678L143.412 479.59C144.19 481.318 144.956 483.038 145.526 484.615C146.09 486.174 146.5 487.693 146.5 489V490H144.5V489C144.5 488.054 144.191 486.806 143.645 485.295C143.105 483.801 142.371 482.148 141.588 480.41L141.178 479.498L143.002 478.678Z" fill="#374151"/>
<path d="M236.453 248.609C235.902 247.242 236.909 245.752 238.382 245.752H299.737C301.435 245.752 302.962 246.783 303.596 248.358L323.343 297.398H256.1L236.453 248.609Z" fill="white"/>
<path d="M254.225 257.87C253.961 257.213 254.445 256.497 255.153 256.497H291.503C292.32 256.497 293.054 256.994 293.359 257.751L304.421 285.28C304.685 285.937 304.201 286.653 303.493 286.653H267.143C266.326 286.653 265.592 286.156 265.287 285.399L254.225 257.87Z" fill="#E1EFFE"/>
<path d="M265.554 264.374C265.289 263.717 265.773 263 266.482 263H285.8C286.616 263 287.35 263.496 287.655 264.252L293.447 278.626C293.712 279.283 293.228 280 292.52 280H273.201C272.386 280 271.651 279.504 271.346 278.748L265.554 264.374Z" fill="white"/>
<path d="M318.837 308.144H386.081L323.343 297.398H256.099L318.837 308.144Z" fill="#E1EFFE"/>
<path d="M318.837 308.143H386.081L387.121 311.263H319.877L318.837 308.143Z" fill="#111928"/>
<path d="M318.837 308.143L256.099 297.398L257.139 299.651L319.877 311.263L318.837 308.143Z" fill="#111928"/>
<path d="M497.314 151.736C500.809 157.113 498.177 165.024 491.436 169.405C484.694 173.787 476.396 172.98 472.901 167.603C469.407 162.226 472.039 154.315 478.78 149.933C485.521 145.552 493.819 146.359 497.314 151.736Z" fill="#111928"/>
<path d="M470.246 189.977C460.811 190.729 455.312 179.964 453.741 174.488C451.604 176.818 451.179 183.593 451.234 186.689C445.757 171.971 457.342 155.248 478.861 170.24C500.379 185.233 490.664 197.422 506.675 232.857C515.458 252.293 496.5 258.933 493 257.933C494.107 234.482 484.896 226.264 480.727 222.544L480.666 222.49C476.526 218.796 470.423 204.536 474.259 200.196C478.095 195.856 477.907 188.506 474.771 187.63C472.262 186.929 470.709 188.903 470.246 189.977Z" fill="#111928"/>
<path d="M465.728 206.912L468.646 224.171C474.144 225.913 478.456 223.626 479.925 222.264C474.731 214.002 474.098 204.442 474.43 200.167C476.192 198.112 479.356 191.46 476.34 188.595C473.325 185.73 470.983 188.095 470.188 189.635C461.185 189.611 455.472 179.527 453.741 174.488C452.535 174.634 450.407 178.884 451.538 194.723C452.67 210.562 461.469 209.448 465.728 206.912Z" fill="#FDBA8C"/>
<path d="M465.728 206.912L468.646 224.171C474.144 225.913 478.456 223.626 479.925 222.264C474.731 214.002 474.098 204.442 474.43 200.167C476.192 198.112 479.356 191.46 476.34 188.595C473.325 185.73 470.983 188.095 470.188 189.635C461.185 189.611 455.472 179.527 453.741 174.488C452.535 174.634 450.407 178.884 451.538 194.723C452.67 210.562 461.469 209.448 465.728 206.912Z" fill="url(#paint5_linear_1_7760)"/>
<path fill-rule="evenodd" clip-rule="evenodd" d="M474.375 200.084C472.251 202.83 467.42 205.996 465.728 206.915L465.728 206.919L468.217 221.632C472.26 222.189 475.985 221.062 478.538 219.804C474.915 212.598 474.223 204.342 474.375 200.084Z" fill="url(#paint6_linear_1_7760)"/>
<path d="M457.981 191.304C458.077 191.87 457.696 192.406 457.129 192.502C456.563 192.598 456.026 192.217 455.931 191.65C455.835 191.084 456.216 190.547 456.782 190.452C457.349 190.356 457.885 190.737 457.981 191.304Z" fill="#111928"/>
<path fill-rule="evenodd" clip-rule="evenodd" d="M456.16 187.616C455.436 187.747 454.9 188.153 454.416 188.678C454.229 188.881 453.912 188.894 453.709 188.707C453.506 188.52 453.493 188.204 453.68 188.001C454.239 187.394 454.958 186.818 455.981 186.632C456.998 186.447 458.229 186.663 459.788 187.455C460.034 187.58 460.133 187.881 460.008 188.127C459.883 188.373 459.582 188.471 459.335 188.346C457.892 187.614 456.888 187.483 456.16 187.616Z" fill="#111928"/>
<path fill-rule="evenodd" clip-rule="evenodd" d="M474.767 192.749C474.809 192.015 474.54 191.398 474.143 190.805C473.989 190.576 474.05 190.265 474.28 190.112C474.509 189.958 474.82 190.019 474.973 190.249C475.432 190.934 475.824 191.768 475.766 192.806C475.707 193.838 475.209 194.984 474.074 196.315C473.895 196.525 473.579 196.55 473.369 196.371C473.159 196.191 473.134 195.876 473.313 195.666C474.364 194.434 474.725 193.488 474.767 192.749Z" fill="#111928"/>
<path fill-rule="evenodd" clip-rule="evenodd" d="M452.863 190.765C453.136 190.806 453.324 191.061 453.283 191.334L452.265 198.137C452.247 198.258 452.345 198.366 452.468 198.358L455.41 198.181C455.685 198.164 455.922 198.374 455.939 198.649C455.956 198.925 455.746 199.162 455.47 199.179L452.528 199.357C451.771 199.402 451.164 198.739 451.276 197.989L452.294 191.186C452.335 190.913 452.59 190.724 452.863 190.765Z" fill="#111928"/>
<path fill-rule="evenodd" clip-rule="evenodd" d="M457.464 202.018C458.165 201.613 458.654 200.938 458.973 200.06C459.067 199.801 459.354 199.667 459.614 199.761C459.873 199.856 460.007 200.143 459.913 200.402C459.539 201.431 458.925 202.328 457.965 202.884C457.004 203.439 455.765 203.612 454.221 203.327C453.95 203.277 453.77 203.016 453.82 202.744C453.87 202.473 454.131 202.293 454.403 202.344C455.783 202.598 456.764 202.423 457.464 202.018Z" fill="#111928"/>
<path d="M298.213 303.29C304.452 306.202 319.704 308.316 329.582 309.876L332.355 295.145C316.18 296.647 291.974 300.378 298.213 303.29Z" fill="#FDBA8C"/>
<path d="M298.213 303.29C304.452 306.202 319.704 308.316 329.582 309.876L332.355 295.145C316.18 296.647 291.974 300.378 298.213 303.29Z" fill="url(#paint7_linear_1_7760)"/>
<path d="M477.64 216.35C473.236 217.645 469.397 217.327 467.592 216.949C467.399 216.909 467.208 217.029 467.167 217.222L466.61 219.867C466.575 220.036 466.669 220.206 466.833 220.261C471.143 221.702 476.996 221.236 479.2 220.162L477.64 216.35Z" fill="#1C64F2"/>
<path d="M456.238 336L408.049 320.855C407.529 315.307 410.927 296.057 428.677 263.437C446.427 230.817 461.727 220.887 467.159 220H479.292C514.377 239.571 478.541 305.488 456.238 336Z" fill="#F9FAFB"/>
<path d="M456.238 336L408.049 320.855C407.529 315.307 410.927 296.057 428.677 263.437C446.427 230.817 461.727 220.887 467.159 220H479.292C514.377 239.571 478.541 305.488 456.238 336Z" fill="url(#paint8_linear_1_7760)"/>
<path d="M328.196 312.956L329.929 293.931C351.5 293.931 380.72 294.505 402.731 294.505C418.56 272.553 445 234.5 456.5 226.5C463.5 221.63 480.813 231.982 477 245.5C473.188 259.018 437.086 327.9 414.902 330.326C397.155 332.267 353.037 319.888 328.196 312.956Z" fill="#F9FAFB"/>
<path fill-rule="evenodd" clip-rule="evenodd" d="M429.214 322.176C424.684 315.585 417.092 311.263 408.49 311.263C397.728 311.263 388.547 318.028 384.965 327.537C385.432 327.619 385.896 327.7 386.357 327.779C389.806 318.924 398.415 312.65 408.49 312.65C416.678 312.65 423.898 316.794 428.166 323.1C428.514 322.8 428.864 322.492 429.214 322.176Z" fill="#76A9FA"/>
<path d="M472.787 441.938L472.787 447.83L289.08 447.83L289.08 441.938L472.787 441.938Z" fill="#E1EFFE"/>
<path d="M472.787 308.143H478.68V492.277C478.68 493.382 477.785 494.277 476.68 494.277H474.787C473.683 494.277 472.787 493.382 472.787 492.277V308.143Z" fill="#E1EFFE"/>
<path d="M442.631 395.145H282.621C280.445 395.145 278.681 393.381 278.681 391.205C278.681 389.436 279.857 387.881 281.57 387.44C297.01 383.458 331.065 376.774 364.816 376.774C400.864 376.774 431.828 384.4 442.805 388.212L442.631 395.145Z" fill="#D6DBE2"/>
<path d="M504.587 262.278L442.632 395.144L436.701 392.116C438.537 379.136 445.694 345.689 459.63 315.749C472.513 288.07 489.625 266.75 498.22 257.755C499.367 256.555 501.145 256.264 502.651 256.965C504.653 257.897 505.52 260.276 504.587 262.278Z" fill="#D6DBE2"/>
<path d="M283.534 395.144H289.426V492.277C289.426 493.381 288.531 494.277 287.426 494.277H285.534C284.429 494.277 283.534 493.381 283.534 492.277V395.144Z" fill="#E1EFFE"/>
<path fill-rule="evenodd" clip-rule="evenodd" d="M324.236 375.299C306.206 398.289 294.594 426.237 289.505 445.799L283.802 444.316C289.053 424.132 300.977 395.409 319.599 371.663C338.216 347.924 363.863 328.767 396.531 328.767H478.16V334.66H396.531C366.393 334.66 342.271 352.302 324.236 375.299Z" fill="#E1EFFE"/>
<defs>
<linearGradient id="paint0_linear_1_7760" x1="657.674" y1="468.866" x2="500.118" y2="468.866" gradientUnits="userSpaceOnUse">
<stop stop-color="#76A9FA"/>
<stop offset="1" stop-color="#76A9FA" stop-opacity="0"/>
</linearGradient>
<linearGradient id="paint1_linear_1_7760" x1="-49.3585" y1="468.866" x2="108.198" y2="468.866" gradientUnits="userSpaceOnUse">
<stop stop-color="#76A9FA"/>
<stop offset="1" stop-color="#76A9FA" stop-opacity="0"/>
</linearGradient>
<linearGradient id="paint2_linear_1_7760" x1="273.656" y1="471.747" x2="238.994" y2="471.747" gradientUnits="userSpaceOnUse">
<stop stop-color="#B43403"/>
<stop offset="1" stop-color="#B43403" stop-opacity="0"/>
</linearGradient>
<linearGradient id="paint3_linear_1_7760" x1="189.613" y1="392.057" x2="275.414" y2="458.596" gradientUnits="userSpaceOnUse">
<stop stop-color="#111928"/>
<stop offset="1" stop-color="#111928" stop-opacity="0"/>
</linearGradient>
<linearGradient id="paint4_linear_1_7760" x1="196.706" y1="470.361" x2="173.136" y2="457.536" gradientUnits="userSpaceOnUse">
<stop stop-color="#B43403"/>
<stop offset="1" stop-color="#B43403" stop-opacity="0"/>
</linearGradient>
<linearGradient id="paint5_linear_1_7760" x1="506.597" y1="211.329" x2="461.69" y2="218.923" gradientUnits="userSpaceOnUse">
<stop stop-color="#B43403"/>
<stop offset="1" stop-color="#B43403" stop-opacity="0"/>
</linearGradient>
<linearGradient id="paint6_linear_1_7760" x1="465.693" y1="175.279" x2="473.525" y2="221.588" gradientUnits="userSpaceOnUse">
<stop stop-color="#B43403"/>
<stop offset="1" stop-color="#B43403" stop-opacity="0"/>
</linearGradient>
<linearGradient id="paint7_linear_1_7760" x1="322.477" y1="314.035" x2="320.744" y2="299.477" gradientUnits="userSpaceOnUse">
<stop stop-color="#B43403"/>
<stop offset="1" stop-color="#B43403" stop-opacity="0"/>
</linearGradient>
<linearGradient id="paint8_linear_1_7760" x1="444.798" y1="338.995" x2="472.933" y2="269.441" gradientUnits="userSpaceOnUse">
<stop stop-color="#A4CAFE"/>
<stop offset="1" stop-color="#A4CAFE" stop-opacity="0"/>
</linearGradient>
</defs>
</svg>
